<svg width="36" height="36" viewBox="0 0 36 36" fill="none" xmlns="http://www.w3.org/2000/svg">
<path fill-rule="evenodd" clip-rule="evenodd" d="M29.6881 8.12206C30.9782 8.46866 31.9987 9.48921 32.3453 10.7793C32.9807 13.1285 33 18.0001 33 18.0001C33 18.0001 33 22.891 32.3646 25.2209C32.018 26.511 30.9974 27.5316 29.7073 27.8782C27.3774 28.5136 18 28.5136 18 28.5136C18 28.5136 8.62259 28.5136 6.29268 27.8782C5.00257 27.5316 3.98203 26.511 3.63543 25.2209C3 22.8717 3 18.0001 3 18.0001C3 18.0001 3 13.1285 3.61617 10.7986C3.96277 9.50846 4.98331 8.48792 6.27343 8.14132C8.60334 7.50588 17.9807 7.48663 17.9807 7.48663C17.9807 7.48663 27.3582 7.48663 29.6881 8.12206ZM22.7754 18.0001L14.9961 22.5059V13.4943L22.7754 18.0001Z" fill="white"/>
</svg>
